<?xml version="1.0" encoding="UTF-8" standalone="no"?>
<svg
   xmlns:dc="http://purl.org/dc/elements/1.1/"
   xmlns:cc="http://creativecommons.org/ns#"
   xmlns:rdf="http://www.w3.org/1999/02/22-rdf-syntax-ns#"
   xmlns:svg="http://www.w3.org/2000/svg"
   xmlns="http://www.w3.org/2000/svg"
   viewBox="0 0 300 300"
   height="300"
   width="300"
   id="svg38"
   version="1.1">
  <metadata
     id="metadata44">
    <rdf:RDF>
      <cc:Work
         rdf:about="">
        <dc:format>image/svg+xml</dc:format>
        <dc:type
           rdf:resource="http://purl.org/dc/dcmitype/StillImage" />
        <dc:title></dc:title>
      </cc:Work>
    </rdf:RDF>
  </metadata>
  <defs
     id="defs42" />
  <path
     id="path48"
     d="m 161.00329,284.55551 c 3.10023,-13.97619 9.24263,-40.10076 9.24263,-40.10076 l -11.51029,-4.05052 c -17.28141,-6.0814 -19.23092,-11.949 -18.36931,-29.73252 0.15577,-3.21525 0.71705,-5.76591 1.72259,-6.65412 2.66348,-2.11954 7.09027,-1.15852 7.84469,2.12405 6.0859,-0.96648 19.3454,-2.97911 29.56456,-1.31421 1.92203,-7.73832 2.62747,-14.45926 1.98911,-21.6777 -23.1883,3.35327 -53.25166,-1.22051 -71.73234,-19.99289 -16.357908,-16.6161 -19.531261,-51.37548 2.77,-59.19716 17.40131,-6.103122 37.57413,5.7737 34.982,24.63944 -1.51176,11.0027 -9.39263,14.22414 -16.78781,14.53382 -3.86281,0.16175 -11.56021,-3.17532 -9.37297,-6.83191 1.10095,-1.68027 1.39856,-2.23049 6.09107,-1.28124 10.2475,2.07299 14.49961,-3.87488 10.00915,-13.84753 -5.18075,-11.5057 -22.57929,-10.32051 -27.05256,-2.47074 -4.01102,7.03861 -4.95494,15.8631 -1.92452,22.8592 7.96242,18.38226 22.76254,26.04584 38.57538,29.62378 10.2972,2.32993 27.22003,1.13647 30.97771,-6.59763 -2.69443,-11.97615 -2.88691,-23.85427 -3.31709,-33.23467 -6.16887,-6.4007 -14.49679,-15.90235 -18.1282,-24.78866 -3.49256,-8.546532 -3.9127,-19.557153 -3.81536,-42.195296 0.0895,-20.813962 0.0156,-22.161979 -1.69392,-30.904773 -1.97348,-10.092676 -2.48088,-12.614465 -0.88358,-16.028388 3.28482,-7.020651 12.6089,2.969539 14.03554,6.996635 12.18007,18.182529 31.48896,16.39576 43.97919,-0.704526 7.22553,-10.086252 11.10998,-3.251939 9.11209,5.775662 -3.54906,16.036704 -8.92976,22.806249 -7.36995,38.552707 1.11471,12.391697 1.37116,18.614424 0.0216,25.837987 -3.44766,18.454312 -9.19055,23.520332 -22.31336,39.736922 -1.24837,10.52721 -1.19889,19.46186 0.52435,28.96265 3.00723,16.57991 3.85124,28.6371 0.7578,44.10661 20.43741,8.46889 29.40394,23.99724 24.54621,43.60862 -1.43858,5.53808 -3.65708,9.62833 -5.43853,10.04156 -3.81781,0.8856 -5.7171,-3.09008 -7.6395,-6.29267 l -21.64487,-6.99801 -6.06222,23.2184 c -1.72399,6.60294 -4.37963,16.99923 -11.68935,14.27788 z m 25.22125,-66.83488 -5.24379,21.15728 22.47357,7.64488 c 6.67,-12.30338 -7.89928,-27.16611 -17.22978,-28.80216 z m -13.98664,18.27872 4.62589,-19.89863 c -8.02602,-1.53002 -19.00802,-2.05788 -27.28935,-1.08252 -2.55361,13.58661 12.67386,17.71675 22.66346,20.98115 z m 19.38764,-119.09041 c 4.26493,-6.1344 8.93431,-12.8217 10.05974,-19.216522 l -37.77859,4.191702 c 5.69491,9.08731 12.86834,20.35979 18.89467,20.36816 4.04278,0.006 6.7546,-2.40016 8.82418,-5.34334 z m 10.87565,-30.010141 c 0.62782,-3.175896 0.2716,-8.578158 -0.74281,-12.675707 -7.15346,0.636514 -32.38025,-0.232243 -33.85923,-3.017507 4.06072,-7.36701 13.93233,-7.886943 19.26121,-8.313262 l 13.80089,-1.17771 c 0.13767,-8.1917 1.62417,-14.150004 4.17562,-22.235983 -14.05471,9.0518 -27.39624,8.734539 -41.47351,-0.313284 l -0.75783,52.273911 z M 88.817156,71.641746 C 77.52668,53.823258 79.774619,33.796392 102.05205,28.151239 127.67987,21.65709 150.51859,43.782172 138.97737,68.27629 130.5838,86.090091 100.69775,88.97133 88.817156,71.641746 Z M 102.42251,41.137043 c -12.544412,5.392989 -11.669734,17.189644 -4.949019,25.603502 8.675019,10.860503 26.921909,7.292472 31.267119,-2.721636 7.9521,-18.326671 -11.59972,-28.939135 -26.3181,-22.881866 z m 4.14532,9.002918 c 9.95083,-4.089332 13.85788,8.298972 5.39637,10.306544 -6.0675,1.439573 -8.56865,-9.002881 -5.39637,-10.306544 z"
     style="fill:#000000;stroke-width:0.68958694" />
</svg>
